<svg id="Layer_2" data-name="Layer 2" xmlns="http://www.w3.org/2000/svg" viewBox="0 0 540 292.99"><defs><style>.cls-1{fill:#66b2ff;}</style></defs><path class="cls-1" d="M81.42,90.49a8.34,8.34,0,0,1,2.2-.87,5.86,5.86,0,0,1,4.3.78c.92.54,1.84,1.09,2.8,1.55s1.84,1,2.74,1.47c1.8,1,3.62,2,5.42,3,1.35.75,2.69,1.52,4.05,2.26,1.78,1,3.58,1.93,5.37,2.89a9.08,9.08,0,0,1,2.91,2.24,6.2,6.2,0,0,1,1.33,4q0,12.09-.07,24.18a5.9,5.9,0,0,1-3,5.26c-2.44,1.49-4.9,2.92-7.34,4.39a.47.47,0,0,1-.51,0c-3.19-1.73-6.4-3.44-9.6-5.16l-.12-.09c.07-.14.22-.16.33-.23l6.72-4a6.62,6.62,0,0,0,3.45-6.15c0-4.11,0-8.21-.06-12.32A6.16,6.16,0,0,0,99,107.9c-3.81-2.07-7.6-4.19-11.42-6.24a5.71,5.71,0,0,0-5.8,0q-6,3.47-11.93,7.09a6.13,6.13,0,0,0-3,5.43c0,4.43-.06,8.86,0,13.29A5.81,5.81,0,0,0,70,132.84c4.07,2.2,8.16,4.36,12.25,6.52,3.9,2.07,7.73,4.27,11.61,6.39,3.33,1.81,6.69,3.57,10,5.36,1.82,1,3.66,1.9,5.46,2.92a6,6,0,0,1,3.32,5.52q0,12.31.06,24.63a6.23,6.23,0,0,1-2.8,5.39l-.14.1-.4.22L88.21,202.53l-.31.21a6.81,6.81,0,0,1-2.83.75,6.73,6.73,0,0,1-2.55-.42A30.31,30.31,0,0,1,79,201.18q-2.55-1.34-5.07-2.74c-1.55-.86-3.11-1.7-4.66-2.55-1.77-1-3.56-1.92-5.32-2.91-1.17-.67-2.37-1.27-3.53-1.95a6.53,6.53,0,0,1-3.27-4.43,15.33,15.33,0,0,1-.13-2.87c0-1.3,0-2.61,0-3.91,0-.54,0-1.07,0-1.6s-.05-1.22-.05-1.82c0-2.59,0-5.19,0-7.78,0-1,0-2,0-3s-.08-1.87,0-2.8A19,19,0,0,1,57,159.7a6,6,0,0,1,1.41-2.83,11.16,11.16,0,0,1,2.54-1.9q3.12-1.84,6.21-3.7a.6.6,0,0,1,.7,0c3.1,1.68,6.22,3.35,9.33,5a.64.64,0,0,1,.28.19c-.07.12-.2.15-.3.22l-6.87,4.09A6.47,6.47,0,0,0,67,166.64c0,4.12,0,8.24.06,12.35a6.93,6.93,0,0,0,.88,3.55,6.68,6.68,0,0,0,2.86,2.53c3.73,2,7.45,4,11.18,5.94a6,6,0,0,0,5.66.07c.41-.2.81-.44,1.21-.67l10.61-6.33a6.56,6.56,0,0,0,3.15-4.35,13.12,13.12,0,0,0,.12-3c0-3.75,0-7.5-.06-11.25a5.91,5.91,0,0,0-3.13-5.35c-3.31-1.83-6.64-3.63-10-5.43L78.91,149l-5.6-3-3.42-1.85-3.13-1.72c-1.3-.71-2.59-1.43-3.9-2.13a31.19,31.19,0,0,1-3.38-1.91,6.84,6.84,0,0,1-1.75-2,6.6,6.6,0,0,1-.87-3.91c0-.55,0-1.1,0-1.65,0-1.09,0-2.19,0-3.28,0-1.38,0-2.76,0-4.13,0-1.6,0-3.2,0-4.8,0-2.65,0-5.31,0-8,0-.79,0-1.58,0-2.38a6.56,6.56,0,0,1,.26-1.35,4.19,4.19,0,0,1,1-2,7.68,7.68,0,0,1,1.65-1.46c.11-.06.23-.11.34-.18L81,90.77Z"/><path d="M156,164.06a32.81,32.81,0,0,1-9.22-1.29,21.39,21.39,0,0,1-7.11-3.34l3.14-7a21.92,21.92,0,0,0,6,3,22.67,22.67,0,0,0,7.14,1.17,14.14,14.14,0,0,0,4.43-.57,5.45,5.45,0,0,0,2.48-1.51,3.26,3.26,0,0,0,.8-2.2,3,3,0,0,0-1.25-2.54,10.38,10.38,0,0,0-3.34-1.54c-1.39-.4-2.91-.78-4.54-1.15s-3.29-.79-4.94-1.31a20,20,0,0,1-4.57-2.05,9.62,9.62,0,0,1-3.31-3.37,10.15,10.15,0,0,1-1.23-5.23,11.33,11.33,0,0,1,1.82-6.25,12.48,12.48,0,0,1,5.57-4.51,22.84,22.84,0,0,1,9.4-1.69,30.83,30.83,0,0,1,7.45.92,22.09,22.09,0,0,1,6.42,2.62l-2.91,7a23.09,23.09,0,0,0-5.54-2.31,20.73,20.73,0,0,0-5.48-.77,13.25,13.25,0,0,0-4.4.6,5.11,5.11,0,0,0-2.42,1.62,3.71,3.71,0,0,0-.78,2.29,3.1,3.1,0,0,0,1.26,2.57,9.16,9.16,0,0,0,3.31,1.51c1.37.36,2.9.72,4.57,1.09a48,48,0,0,1,5,1.34,22.31,22.31,0,0,1,4.51,2,9.73,9.73,0,0,1,3.34,3.32,9.64,9.64,0,0,1,1.29,5.16,10.89,10.89,0,0,1-1.86,6.17,12.91,12.91,0,0,1-5.62,4.51A22.71,22.71,0,0,1,156,164.06Z"/><path d="M193.82,163.83a19.61,19.61,0,0,1-9.19-2.06A15,15,0,0,1,176.35,148a16,16,0,0,1,2.08-8.17,14.67,14.67,0,0,1,5.83-5.62,17.39,17.39,0,0,1,8.42-2,17,17,0,0,1,8.14,1.94,14.64,14.64,0,0,1,5.74,5.49,16.27,16.27,0,0,1,2.11,8.5q0,.52-.06,1.17c0,.44-.07.85-.11,1.23h-25v-5.19h20.28l-3.49,1.54a8.08,8.08,0,0,0-.91-4.17,7.14,7.14,0,0,0-2.68-2.77,7.79,7.79,0,0,0-4-1,7.93,7.93,0,0,0-4,1,7,7,0,0,0-2.71,2.8,8.8,8.8,0,0,0-1,4.25v1.37a8.45,8.45,0,0,0,1.14,4.46,7.53,7.53,0,0,0,3.14,2.88,10.57,10.57,0,0,0,4.8,1,11.43,11.43,0,0,0,4.25-.74,10.59,10.59,0,0,0,3.4-2.23l4.74,5.14a13.74,13.74,0,0,1-5.31,3.68A19.59,19.59,0,0,1,193.82,163.83Z"/><path d="M233.28,132.19a14.3,14.3,0,0,1,6.54,1.46,10.53,10.53,0,0,1,4.54,4.45,15.72,15.72,0,0,1,1.66,7.68v17.59h-8.91V147.15q0-3.71-1.63-5.48a5.92,5.92,0,0,0-4.59-1.77,7.83,7.83,0,0,0-3.8.92,6.3,6.3,0,0,0-2.63,2.68,10,10,0,0,0-.94,4.68v15.19h-8.91V121h8.91v20.16l-2-2.57a11.29,11.29,0,0,1,4.74-4.74A14.56,14.56,0,0,1,233.28,132.19Z"/><path d="M263.55,163.83a14,14,0,0,1-6.11-1.23,9.58,9.58,0,0,1-4-3.34,8.42,8.42,0,0,1-1.4-4.74,8.06,8.06,0,0,1,5.6-8,21.1,21.1,0,0,1,7.65-1.15h8.11v5.14h-7.2c-2.09,0-3.53.35-4.31,1a3.28,3.28,0,0,0-1.17,2.57,3.2,3.2,0,0,0,1.34,2.71,5.94,5.94,0,0,0,3.63,1,8,8,0,0,0,4.08-1,5.56,5.56,0,0,0,2.54-3.14l1.38,4.17a8.08,8.08,0,0,1-3.55,4.43A12.5,12.5,0,0,1,263.55,163.83Zm9.37-.46v-6l-.58-1.32V145.33a5.76,5.76,0,0,0-1.74-4.46c-1.16-1.06-2.94-1.6-5.34-1.6a15.62,15.62,0,0,0-4.82.77,13.7,13.7,0,0,0-4.09,2.09l-3.14-6.23a18.39,18.39,0,0,1,6.06-2.77,28.21,28.21,0,0,1,7.19-.94q7,0,10.91,3.31t3.88,10.34v17.53Z"/><path d="M285.65,140.19v-6.86H307v6.86Zm16.22,23.64q-5.43,0-8.45-2.77t-3-8.25v-27h9v26.79a4.27,4.27,0,0,0,1,3,3.48,3.48,0,0,0,2.71,1.09,5.82,5.82,0,0,0,3.65-1.14l2.34,6.28a9.18,9.18,0,0,1-3.22,1.45A15.82,15.82,0,0,1,301.87,163.83Z"/><path class="cls-1" d="M333.9,164.06a23.91,23.91,0,0,1-8.59-1.52,19.95,19.95,0,0,1-11.42-10.88,21.85,21.85,0,0,1,0-16.56,19.69,19.69,0,0,1,4.57-6.56,20.4,20.4,0,0,1,6.91-4.31,25.3,25.3,0,0,1,18,.28,18.34,18.34,0,0,1,7.09,5.28l-6,5.49a13.36,13.36,0,0,0-4.54-3.54,12.72,12.72,0,0,0-5.51-1.2,13.59,13.59,0,0,0-5.14.94,11.79,11.79,0,0,0-6.71,6.71,14.83,14.83,0,0,0,0,10.39,11.79,11.79,0,0,0,6.71,6.71,13.59,13.59,0,0,0,5.14.94,12.6,12.6,0,0,0,5.51-1.22,14,14,0,0,0,4.54-3.57l6,5.48a18.61,18.61,0,0,1-7.09,5.31A23.57,23.57,0,0,1,333.9,164.06Z"/><path class="cls-1" d="M374.68,132.19a14.36,14.36,0,0,1,6.54,1.46,10.58,10.58,0,0,1,4.54,4.45,15.83,15.83,0,0,1,1.65,7.68v17.59H378.5V147.15q0-3.71-1.62-5.48a6,6,0,0,0-4.6-1.77,7.83,7.83,0,0,0-3.8.92,6.28,6.28,0,0,0-2.62,2.68,9.94,9.94,0,0,0-.95,4.68v15.19H356V121h8.91v20.16l-2-2.57a11.4,11.4,0,0,1,4.74-4.74A14.57,14.57,0,0,1,374.68,132.19Z"/><path class="cls-1" d="M404.94,163.83a14.05,14.05,0,0,1-6.11-1.23,9.64,9.64,0,0,1-4-3.34,8.42,8.42,0,0,1-1.39-4.74,8.07,8.07,0,0,1,5.59-8,21.1,21.1,0,0,1,7.65-1.15h8.11v5.14h-7.19c-2.1,0-3.53.35-4.31,1a3.28,3.28,0,0,0-1.17,2.57,3.18,3.18,0,0,0,1.34,2.71,5.89,5.89,0,0,0,3.62,1,8,8,0,0,0,4.09-1,5.6,5.6,0,0,0,2.54-3.14l1.37,4.17a8.11,8.11,0,0,1-3.54,4.43A12.54,12.54,0,0,1,404.94,163.83Zm9.37-.46v-6l-.57-1.32V145.33a5.76,5.76,0,0,0-1.74-4.46,7.73,7.73,0,0,0-5.34-1.6,15.64,15.64,0,0,0-4.83.77,13.52,13.52,0,0,0-4.08,2.09l-3.14-6.23a18.24,18.24,0,0,1,6.05-2.77,28.23,28.23,0,0,1,7.2-.94q7,0,10.9,3.31t3.89,10.34v17.53Z"/><path class="cls-1" d="M435.15,128.37a5.74,5.74,0,0,1-4-1.43,4.84,4.84,0,0,1,0-7.08,5.74,5.74,0,0,1,4-1.43,6,6,0,0,1,4,1.34,4.34,4.34,0,0,1,1.57,3.46,4.84,4.84,0,0,1-1.54,3.68A5.68,5.68,0,0,1,435.15,128.37Zm-4.45,35V132.65h8.91v30.72Z"/><path class="cls-1" d="M466.56,132.19a14.3,14.3,0,0,1,6.54,1.46,10.53,10.53,0,0,1,4.54,4.45,15.83,15.83,0,0,1,1.66,7.68v17.59h-8.91V147.15c0-2.47-.55-4.3-1.63-5.48a6,6,0,0,0-4.6-1.77,7.79,7.79,0,0,0-3.79.92,6.3,6.3,0,0,0-2.63,2.68,10,10,0,0,0-.94,4.68v15.19h-8.91V132.65h8.51v8.51l-1.6-2.57a11.29,11.29,0,0,1,4.74-4.74A14.5,14.5,0,0,1,466.56,132.19Z"/></svg>